inDegrees=no
num_controls=7
num_derivatives=13
num_iterations=206
num_multipliers=7
num_parameters=0
num_slacks=7
num_states=26
objective=5.228874
objective_accelerations=0.760164
objective_balance=0.037679
objective_effort=0.248947
objective_height=4.155068
objective_ligament=0.027017
solver_duration=2241.471480
status=Solve_Succeeded
success=true
DataType=double
version=3
OpenSimVersion=4.4-2022-07-23-0e9fedc
endheader
time	/jointset/ground_pelvis/pelvis_tilt/value	/jointset/ground_pelvis/pelvis_tx/value	/jointset/ground_pelvis/pelvis_ty/value	/jointset/hip_l/hip_flexion_l/value	/jointset/hip_l/hip_adduction_l/value	/jointset/hip_l/hip_rotation_l/value	/jointset/back/lumbar_extension/value	/jointset/patellofemoral_l/patellar_flexion_l/value	/jointset/knee_l/knee_flexion_l/value	/jointset/knee_l/knee_adduction_l/value	/jointset/knee_l/knee_rotation_l/value	/jointset/ankle_l/ankle_angle_l/value	/jointset/subtalar_l/subtalar_angle_l/value	/jointset/ground_pelvis/pelvis_tilt/speed	/jointset/ground_pelvis/pelvis_tx/speed	/jointset/ground_pelvis/pelvis_ty/speed	/jointset/hip_l/hip_flexion_l/speed	/jointset/hip_l/hip_adduction_l/speed	/jointset/hip_l/hip_rotation_l/speed	/jointset/back/lumbar_extension/speed	/jointset/patellofemoral_l/patellar_flexion_l/speed	/jointset/knee_l/knee_flexion_l/speed	/jointset/knee_l/knee_adduction_l/speed	/jointset/knee_l/knee_rotation_l/speed	/jointset/ankle_l/ankle_angle_l/speed	/jointset/subtalar_l/subtalar_angle_l/speed	/forceset/tau_hip_flexion_l	/forceset/tau_hip_adduction_l	/forceset/tau_hip_rotation_l	/forceset/tau_knee_flexion_l	/forceset/tau_ankle_angle_l	/forceset/tau_subtalar_angle_l	/forceset/tau_lumbar_extension	lambda_cid13_p0	lambda_cid13_p1	lambda_cid13_p2	lambda_cid13_p3	lambda_cid13_p4	lambda_cid13_p5	lambda_cid14_p0	/jointset/ground_pelvis/pelvis_tilt/accel	/jointset/ground_pelvis/pelvis_tx/accel	/jointset/ground_pelvis/pelvis_ty/accel	/jointset/hip_l/hip_flexion_l/accel	/jointset/hip_l/hip_adduction_l/accel	/jointset/hip_l/hip_rotation_l/accel	/jointset/back/lumbar_extension/accel	/jointset/patellofemoral_l/patellar_flexion_l/accel	/jointset/knee_l/knee_flexion_l/accel	/jointset/knee_l/knee_adduction_l/accel	/jointset/knee_l/knee_rotation_l/accel	/jointset/ankle_l/ankle_angle_l/accel	/jointset/subtalar_l/subtalar_angle_l/accel	gamma_cid13_p0	gamma_cid13_p1	gamma_cid13_p2	gamma_cid13_p3	gamma_cid13_p4	gamma_cid13_p5	gamma_cid14_p0
0	0.04667129097201288	0.1086560935962184	0.902830081913669	0.1266917050730164	-0.3703341394648421	-0.2331771305738604	-0.2144974744115991	0.2051547269256714	0.2051547269256735	-0.1745329251994329	-0.1680690215850478	0.09024399430361882	0.07880996743135375	0	0	0	0	0	0	0	0	0	0	0	0	0	0.1294510126597979	-0.08523168602761914	-0.009571467473308906	-0.2364261030069561	0.1183335812936063	-0.05379552781179401	-0.06473921087888529	7.637627456432251	20.86573611238834	-2.282159498687756	13.24717407014737	-449.4918086046011	-78.7829511747881	-26.52243681217298	-6.892035642930965	-2.576598889605998	-0.9638649345185504	15.59663576769074	-0.2410468898954158	2.793938207402103	-4.198211681071887	7.724774740033913	7.72477474003391	1.40601917200837	-0.4951314785829267	-0.3576938664965833	-0.4029920593665552	1.702594802850787e-10	2.66352186546818e-07	-6.785820384550125e-09	1.537998523810776e-08	4.271047082505814e-08	9.064680202456171e-08	2.514475820370467e-08
0.01	0.04633722351379985	0.1085288284423622	0.9027832077388671	0.1274519008813179	-0.3703458410724335	-0.2330331008992218	-0.2147120991944519	0.2055298408228107	0.2055298408228101	-0.1744651223741527	-0.1680852810739339	0.09022436499238327	0.07878962027536771	-0.06654283886696555	-0.02533668492775752	-0.009346757512447587	0.1513766643366217	-0.002322022294163095	0.02868442945350906	-0.04260238203593594	0.07466446022572679	0.07466446022572736	0.01350015641555162	-0.003213756824755532	-0.003918256730980509	-0.004045708732367413	0.1260093640222679	-0.0835522376679481	-0.009007968181464193	-0.2330705442341166	0.1153367665686429	-0.05377249766697664	-0.06187450583019177	6.698733732074304	20.9135654448641	-2.168064350325681	13.18031071513463	-449.6542800182958	-78.21121930713019	-26.52227930949691	-6.494812848580165	-2.494748341752615	-0.9158610003323884	14.808804726247	-0.2250735735907119	2.887478584722346	-4.242865284720241	7.283528754502553	7.283528754502614	1.312748809210709	-0.2287836966542704	-0.4077432512347388	-0.401843027237988	-1.480620747025291e-08	3.790704103547768e-07	2.853224047024389e-08	2.966380363020246e-08	-1.387673640481603e-07	7.285790463214903e-08	3.738058294080741e-08
0.02	0.04534584669891777	0.1081516874297501	0.902643710020796	0.12970598792491	-0.3703802216378508	-0.2326058702759712	-0.2153430705616363	0.2066408487403421	0.2066408487403424	-0.1742641627614111	-0.1681325353135094	0.09016578277887061	0.07872951948264477	-0.1314618713339713	-0.04997517175117965	-0.01852470865387114	0.2987782470572062	-0.004535791564885152	0.05664018972290097	-0.08326931686650765	0.1471788040778727	0.1471788040778731	0.02662971014638864	-0.006198950138806453	-0.007790580455397683	-0.007950727347381026	0.1225677153847944	-0.08187278930827703	-0.008444468889632017	-0.2297149854612414	0.1123399518436908	-0.05374946752215574	-0.05900980078146231	5.794186679528772	20.95900564535237	-2.057730275173015	13.18318950673411	-449.1440604640187	-77.52925749357524	-26.52165482508919	-6.567274362939045	-2.436959268738886	-0.9301036603137458	14.8016194444833	-0.2193962852072144	2.648204370578677	-3.811122239999056	7.294751465317734	7.29475146531758	1.331898635065436	-0.4494187764419988	-0.3485072651838839	-0.3748540358957927	-2.97826744207909e-08	4.917886341627356e-07	6.385030132503791e-08	4.394762202229715e-08	-3.202451989213787e-07	5.506900723973634e-08	4.961640767791015e-08
0.03	0.04371287529953407	0.107531444297034	0.9024129707077295	0.1334153316060262	-0.3704360395724907	-0.2319036084009661	-0.2163704397291631	0.2084667756355486	0.2084667756355522	-0.1739334559297993	-0.1682093857425993	0.09006857441132704	0.07863121757235966	-0.1948465067145952	-0.07397462540769593	-0.02761692261164891	0.4424311368106376	-0.006601545738038161	0.08368782671319738	-0.1218912922824404	0.2176398857803493	0.217639885780349	0.03944509184122098	-0.009122362665243192	-0.01167061673498582	-0.01168522121750086	0.117934148880837	-0.0799169430605904	-0.007567615104716386	-0.2251568881106994	0.1077811097008282	-0.05336934225640795	-0.05546641724610919	4.427313695609543	20.88311813292034	-1.874147996954758	13.52812811053131	-448.2707404153642	-76.87627259189348	-26.52035853717567	-6.181172526125082	-2.366605159130792	-0.897910343632095	14.04821616609708	-0.1963071336214985	2.714394861636319	-3.840751538973899	6.866773172488992	6.866773172489004	1.246463450714432	-0.206487324604669	-0.4106662659171482	-0.3691669036813702	-3.780127724121174e-08	5.595384582516516e-07	8.070115364566108e-08	5.329116744048962e-08	-4.391443244526399e-07	4.384311478354124e-08	5.877199569583019e-08
0.04	0.04145463466624438	0.1066741732787483	0.9020914832390607	0.1385414226697405	-0.3705117434789116	-0.2309345998563802	-0.217774631920166	0.210986310677736	0.2109863106777362	-0.1734765741784298	-0.1683140072637239	0.08993198278967383	0.07849628675515108	-0.2565157181152609	-0.09738074886510187	-0.03667433977433236	0.5821277235770329	-0.008512985921276205	0.109989523638742	-0.1586339215617174	0.2859004334738792	0.2859004334738791	0.05186469409694437	-0.01175316854608513	-0.01566723127740851	-0.01527650873207254	0.1133005823768511	-0.07796109681290787	-0.006690761319810706	-0.2205987907601788	0.1032222675579553	-0.05298921699066755	-0.05192303371076935	3.091163906274725	20.8056386855071	-1.694639505213323	13.93787199096637	-446.7934885652069	-76.11902129018796	-26.51796406891945	-6.224189566947428	-2.318293228916783	-0.9231443012948826	14.01035884707607	-0.188533487224228	2.499016357628314	-3.435253012667896	6.85464466352839	6.854644663528386	1.252742747243634	-0.3908974473230321	-0.3718229177507618	-0.3462127647861583	-4.56764189455477e-08	6.26361098841206e-07	9.717123878001269e-08	6.253285156025111e-08	-5.567531673170567e-07	3.275254201675268e-08	6.786407367830319e-08
0.05	0.03858742078679743	0.1055858469856736	0.9016792978734323	0.1450460742295109	-0.3706056892753357	-0.2297071206943427	-0.2195361439554335	0.2141783512353412	0.2141783512353413	-0.1728971585293202	-0.1684444608970901	0.08975517937264231	0.07832638178837215	-0.3166440433690261	-0.1201772872705476	-0.04577566232934124	0.7181389237838803	-0.01024690997195003	0.1353798095748381	-0.1933676866649198	0.3521443508697096	0.3521443508697087	0.06394479631339159	-0.01428370734300313	-0.01970263697025346	-0.01867349022357033	0.1083717078489366	-0.07654920589488701	-0.005764007844724862	-0.2165618486011365	0.09965482932809752	-0.05224841538193343	-0.0482576654552003	2.114877389075215	20.53471107876257	-1.514218993982821	13.96087087059218	-445.0894626276776	-75.71893747507627	-26.51399776982141	-5.864698799550142	-2.244238193127237	-0.9056778803133417	13.29694539779641	-0.1615355057130697	2.54006485086406	-3.447318435166045	6.454752554686994	6.454752554686906	1.174715431106123	-0.1760531665743484	-0.4207587137176435	-0.3319014388487285	-4.845255278225914e-08	6.433277296596468e-07	9.801056671674213e-08	6.748441401475807e-08	-6.195596943072725e-07	2.288036262940858e-08	7.291029932887221e-08
0.06	0.03512741469582155	0.1042727744991908	0.9011756889527118	0.1528909267494124	-0.3707161170406114	-0.228229532645092	-0.2216359696769367	0.2180219284223195	0.2180219284223203	-0.1721991275635948	-0.1685986041325657	0.08953775003494915	0.07812341488717481	-0.3750741604211578	-0.1423299875467262	-0.05495905079273475	0.8501679156030216	-0.01180937969158825	0.1600113010814868	-0.2262966588089112	0.4162077593486045	0.4162077593486032	0.07558775742027263	-0.01649108896784666	-0.02379241540974926	-0.02188889561575376	0.1034428333210307	-0.07513731497686629	-0.004837254369632527	-0.212524906442092	0.0960873910982401	-0.05150761377319941	-0.04459229719962461	1.165371888327569	20.26300638916814	-1.338144254572135	14.04461127965236	-442.8547742422048	-75.22140578171296	-26.50781001204058	-5.884547926620769	-2.189525603063328	-0.9395574829718096	13.21391716953482	-0.1542426210171114	2.347257471738833	-3.07429442082572	6.418542880141326	6.418542880141334	1.165314525330381	-0.3262660129081307	-0.3826974670808984	-0.3098975449232813	-5.101399155086009e-08	6.581951600666722e-07	9.819175750830851e-08	7.225533976757009e-08	-6.800587553659431e-07	1.305948401593583e-08	7.778617330230844e-08
0.07000000000000001	0.03109069632164678	0.10274137055261	0.9005795761029325	0.1620377197279613	-0.3708412244939213	-0.2265103081405165	-0.2240552545116598	0.2224962464442741	0.2224962464442755	-0.1713864973593342	-0.1687743264107584	0.08927944186012592	0.07788939654579465	-0.4319876857890182	-0.1638409640335506	-0.06429112917321608	0.978527842607862	-0.01318013412075526	0.1837050310523936	-0.2572678868258148	0.4782944542637639	0.4782944542637626	0.08686016780952716	-0.01859638097132917	-0.02787651486565203	-0.02488013933408925	0.09810324588967141	-0.07355635948742736	-0.003833424541149276	-0.2086237097697949	0.09299107634525119	-0.05084755225131598	-0.04071527568297865	0.3728108036388995	20.01231620193471	-1.180757870456261	13.9448276271964	-440.5201071615196	-74.61050450407267	-26.498742290243	-5.552475144300756	-2.115393502126444	-0.9343112621768596	12.54759980573509	-0.123803576957763	2.361152604018828	-3.064673795685935	6.049508564062801	6.049508564062821	1.096610697517661	-0.1441127017285575	-0.4223408439829514	-0.2886571916220311	-4.897399757077164e-08	6.294551833808592e-07	8.346653656424549e-08	7.276311497657861e-08	-6.913780565555354e-07	5.316569967338908e-09	7.910044674380006e-08
